{"title":"Eminem - Berzerk  (1080p)","uid":9024757,"size":198554492,"categoryP":"video","categoryS":"music_videos","magnet":"?xt=urn:btih:70cbbcd3483bb8b3d9ab78a98d24bacf36a952d8&amp;dn=Eminem+-+Berzerk++%281080p%29&amp;tr=udp%3A%2F%2Ftracker.openbittorrent.com%3A80&amp;tr=udp%3A%2F%2Fopen.demonii.com%3A1337&amp;tr=udp%3A%2F%2Ftracker.coppersurfer.tk%3A6969&amp;tr=udp%3A%2F%2Fexodus.desync.com%3A6969","seeders":1,"leechers":0,"uploader":null,"files":7,"time":1381346432,"description":"General\nComplete name                  : Eminem - Berzerk  (1080p)\nFormat                         : MPEG-4\nFormat profile                 : Base Media / Version 2\nCodec ID                       : mp42\nFile size                      : 189 MiB\nDuration                       : 4mn 19s\nOverall bit rate mode          : Variable\nOverall bit rate               : 6 093 Kbps\n----------------------------------------------------------      \nVideo\nID                             : 1\nFormat                         : AVC\nFormat/Info                    : Advanced Video Codec\nFormat profile                 : &lt;a class=&quot;__cf_email__&quot; href=&quot;/cdn-cgi/l/email-protection&quot; data-cfemail=&quot;3b73525c537b770f150b&quot;&gt;[email&amp;#160;protected]&lt;/a&gt;&lt;script cf-hash='f9e31' type=&quot;text/javascript&quot;&gt;\n/* &lt;![CDATA[ */!function(){try{var t=&quot;currentScript&quot;in document?document.currentScript:function(){for(var t=document.getElementsByTagName(&quot;script&quot;),e=t.length;e--;)if(t[e].getAttribute(&quot;cf-hash&quot;))return t[e]}();if(t&amp;&amp;t.previousSibling){var e,r,n,i,c=t.previousSibling,a=c.getAttribute(&quot;data-cfemail&quot;);if(a){for(e=&quot;&quot;,r=parseInt(a.substr(0,2),16),n=2;a.length-n;n+=2)i=parseInt(a.substr(n,2),16)^r,e+=String.fromCharCode(i);e=document.createTextNode(e),c.parentNode.replaceChild(e,c)}}}catch(u){}}();/* ]]&gt; */&lt;/script&gt;\nFormat settings, CABAC         : Yes\nFormat settings, ReFrames      : 1 frame\nCodec ID                       : avc1\nCodec ID/Info                  : Advanced Video Coding\nDuration                       : 4mn 19s\nBit rate                       : 5 899 Kbps\nMaximum bit rate               : 13.3 Mbps\nWidth                          : 1 920 pixels\nHeight                         : 1 080 pixels\nDisplay aspect ratio           : 16:9\nFrame rate mode                : Constant\nFrame rate                     : 23.976 fps\nColor space                    : YUV\nChroma subsampling             : 4:2:0\nBit depth                      : 8 bits\nScan type                      : Progressive\nBits/(Pixel*Frame)             : 0.119\nStream size                    : 183 MiB (97%)\n----------------------------------------------------------\nAudio\nID                             : 2\nFormat                         : AAC\nFormat/Info                    : Advanced Audio Codec\nFormat profile                 : LC\nCodec ID                       : 40\nDuration                       : 4mn 19s\nBit rate mode                  : Variable\nBit rate                       : 192 Kbps\nMaximum bit rate               : 201 Kbps\nChannel count                  : 2 channels\nChannel positions              : Front: L R\nSampling rate                  : 44.1 KHz\nCompression mode               : Lossy\nStream size                    : 5.94 MiB (3%)\n----------------------------------------------------------\nTotal size        : 189 MB\n----------------------------------------------------------\nEncoded by Eisa","torrent":{"xt":"urn:btih:70cbbcd3483bb8b3d9ab78a98d24bacf36a952d8","amp;dn":"Eminem+-+Berzerk++%281080p%29","amp;tr":["udp%3A%2F%2Ftracker.openbittorrent.com%3A80","udp%3A%2F%2Fopen.demonii.com%3A1337","udp%3A%2F%2Ftracker.coppersurfer.tk%3A6969","udp%3A%2F%2Fexodus.desync.com%3A6969"],"infoHash":"70cbbcd3483bb8b3d9ab78a98d24bacf36a952d8","infoHashBuffer":{"type":"Buffer","data":[112,203,188,211,72,59,184,179,217,171,120,169,141,36,186,207,54,169,82,216]},"announce":[],"urlList":[]}}